<?xml version="1.0" encoding="iso-8859-1"?>
<!-- Generator: Adobe Illustrator 19.0.0, SVG Export Plug-In . SVG Version: 6.00 Build 0)  -->
<svg version="1.1" id="Capa_1" xmlns="http://www.w3.org/2000/svg" xmlns:xlink="http://www.w3.org/1999/xlink" x="0px" y="0px"
	 viewBox="0 0 512 512" style="enable-background:new 0 0 512 512;" xml:space="preserve">
<g color="blue">
	<g color="blue">
		<path d="M463.906,128.671v-17.454H512V32.063h-32.063v15.029h17.033v49.096h-33.065V79.656c0-8.564-6.967-15.53-15.53-15.53
			h-32.063c-8.564,0-15.53,6.967-15.53,15.53v16.532h-209.41v15.029h209.41v18.837l8.016,30.722v191.913H160.313v15.029h248.485
			v17.033H103.202v-17.033h41.08v-15.029h-41.08V160.735l8.016-32.064v-17.454h64.125V96.188h-64.125V79.656
			c0-8.564-6.967-15.53-15.53-15.53H63.624c-8.564,0-15.53,6.967-15.53,15.53v16.532H15.029V47.092h448.877V32.063H0v79.155h48.094
			v18.837l8.016,30.722v272.069H36.753l-12.706,11.123v35.969h111.217v-33.418l-12.156-13.674h-19.907v-33.065h305.597v33.065
			h-19.357l-12.706,11.123v35.969h111.217v-33.418l-12.156-13.674H455.89v-272.11L463.906,128.671z M63.123,111.217V79.656
			c0-0.276,0.225-0.501,0.501-0.501h32.063c0.276,0,0.501,0.225,0.501,0.501v31.562v15.604l-6.368,25.476H69.43l-6.306-24.171
			V111.217z M88.172,167.327v265.519H71.139V167.327H88.172z M116.359,447.875l3.876,4.359v12.674H39.076v-14.123l3.326-2.911H56.11
			h47.092H116.359z M415.812,111.217V79.656c0-0.276,0.225-0.501,0.501-0.501h32.063c0.276,0,0.501,0.225,0.501,0.501v31.562v15.604
			l-6.368,25.476h-20.39l-6.306-24.171V111.217z M440.861,167.327v265.519h-17.033V167.327H440.861z M469.048,447.875l3.876,4.359
			v12.674h-81.159v-14.123l3.326-2.911h13.708h47.092H469.048z"/>
	</g>
</g>
<g>
	<g>
		<rect x="159.311" y="64.125" width="16.031" height="15.029" />
	</g>
</g>
<g>
	<g>
		<rect x="191.374" y="64.125" width="144.282" height="15.029"/>
	</g>
</g>
<g>
	<g>
		<rect x="351.687" y="64.125" width="16.031" height="15.029"/>
	</g>
</g>
<g>
</g>
<g>
</g>
<g>
</g>
<g>
</g>
<g>
</g>
<g>
</g>
<g>
</g>
<g>
</g>
<g>
</g>
<g>
</g>
<g>
</g>
<g>
</g>
<g>
</g>
<g>
</g>
<g>
</g>
</svg>
