<svg height="75pt" viewBox="0 -84 512 512" width="75pt" xmlns="http://www.w3.org/2000/svg"><path d="m482.71875 52.078125v266.90625c0 1.445313-.1875 2.847656-.527344 4.1875-1.855468 7.316406-8.492187 12.738281-16.386718 12.738281h-418.425782c-7.90625 0-14.535156-5.421875-16.390625-12.738281-.34375-1.339844-.527343-2.746094-.527343-4.1875v-266.90625c0-9.339844 7.566406-16.914063 16.917968-16.914063h418.425782c9.339843 0 16.914062 7.574219 16.914062 16.914063zm0 0" fill="#d7deed"/><path d="m482.71875 39.355469v279.628906c0 1.445313-.1875 2.847656-.527344 4.1875h-451.203125c-.34375-1.339844-.527343-2.746094-.527343-4.1875v-279.628906c0-9.351563 7.566406-16.925781 16.917968-16.925781h418.425782c9.339843-.003907 16.914062 7.574218 16.914062 16.925781zm0 0" fill="#c7cfe2"/><path d="m487.867188 308.484375h-463.734376c-9.054687 0-16.390624-7.339844-16.390624-16.390625v-267.960938c0-9.054687 7.335937-16.390624 16.390624-16.390624h463.734376c9.054687 0 16.394531 7.335937 16.394531 16.390624v267.960938c-.003907 9.050781-7.339844 16.390625-16.394531 16.390625zm0 0" fill="#eff2fa"/><path d="m487.339844 7.742188h-55.621094c9.34375 0 16.917969 7.574218 16.917969 16.917968v266.90625c0 9.34375-7.574219 16.917969-16.917969 16.917969h55.625c9.34375 0 16.917969-7.574219 16.917969-16.917969v-266.90625c-.003907-9.34375-7.578125-16.917968-16.921875-16.917968zm0 0" fill="#d7deed"/><path d="m178.644531 271.628906h-120.882812c-6.175781 0-11.1875-5.007812-11.1875-11.1875v-120.878906c0-6.179688 5.011719-11.1875 11.1875-11.1875h120.882812c6.175781 0 11.183594 5.007812 11.183594 11.1875v120.878906c0 6.179688-5.007813 11.1875-11.183594 11.1875zm0 0" fill="#fff"/><path d="m153.164062 271.628906h-72.226562v-26.265625c0-7.996093 6.480469-14.476562 14.472656-14.476562h43.28125c7.992188 0 14.472656 6.480469 14.472656 14.476562zm0 0" fill="#3a85dd"/><path d="m138.40625 178.644531c0 11.796875-9.558594 21.359375-21.355469 21.359375s-21.355469-9.5625-21.355469-21.359375c0-11.792969 9.558594-21.355469 21.355469-21.355469s21.355469 9.5625 21.355469 21.355469zm0 0" fill="#fdd7bd"/><path d="m452.027344 74.96875h-397.476563c-7.238281 0-13.109375-5.871094-13.109375-13.109375v-2.539063c0-7.238281 5.871094-13.109374 13.109375-13.109374h397.476563c7.242187 0 13.113281 5.871093 13.113281 13.109374v2.539063c0 7.238281-5.871094 13.109375-13.113281 13.109375zm0 0" fill="#c7cfe2"/><path d="m487.339844 0h-462.679688c-13.597656 0-24.660156 11.0625-24.660156 24.660156v266.90625c0 12.941406 10.023438 23.578125 22.714844 24.574219v2.847656c0 13.597657 11.0625 24.65625 24.660156 24.65625h418.429688c13.59375 0 24.65625-11.058593 24.65625-24.65625v-2.96875c12.128906-1.539062 21.539062-11.914062 21.539062-24.453125v-266.90625c0-13.597656-11.0625-24.660156-24.660156-24.660156zm9.179687 291.566406c0 5.0625-4.117187 9.175782-9.179687 9.175782h-386.289063c-4.277343 0-7.742187 3.46875-7.742187 7.742187 0 4.277344 3.464844 7.742187 7.742187 7.742187h373.929688v2.761719c0 5.0625-4.117188 9.175781-9.175781 9.175781h-418.429688c-5.0625 0-9.179688-4.113281-9.179688-9.175781v-2.761719h27.417969c4.277344 0 7.742188-3.464843 7.742188-7.742187 0-4.273437-3.464844-7.742187-7.742188-7.742187h-40.953125c-5.0625 0-9.179687-4.113282-9.179687-9.175782v-266.90625c0-5.0625 4.117187-9.179687 9.179687-9.179687h462.679688c5.0625 0 9.179687 4.117187 9.179687 9.179687zm0 0"/><path d="m178.285156 120.636719h-120.164062c-10.632813 0-19.285156 8.652343-19.285156 19.285156v120.164063c0 10.632812 8.652343 19.285156 19.285156 19.285156h120.164062c10.632813 0 19.285156-8.652344 19.285156-19.285156v-120.164063c0-10.636719-8.652343-19.285156-19.285156-19.285156zm-89.609375 143.253906v-18.0625c0-3.96875 3.230469-7.199219 7.199219-7.199219h42.351562c3.96875 0 7.199219 3.226563 7.199219 7.199219v18.0625zm93.414063-3.804687c0 2.097656-1.707032 3.804687-3.804688 3.804687h-17.378906v-18.0625c0-12.507813-10.171875-22.679687-22.679688-22.679687h-42.351562c-12.503906 0-22.679688 10.171874-22.679688 22.679687v18.0625h-15.074218c-2.097656 0-3.804688-1.707031-3.804688-3.804687v-120.164063c0-2.097656 1.707032-3.804687 3.804688-3.804687h120.164062c2.097656 0 3.804688 1.707031 3.804688 3.804687zm0 0"/><path d="m117.050781 149.550781c-16.042969 0-29.097656 13.050781-29.097656 29.097657 0 16.042968 13.054687 29.097656 29.097656 29.097656 16.046875 0 29.097657-13.054688 29.097657-29.097656 0-16.046876-13.054688-29.097657-29.097657-29.097657zm0 42.710938c-7.507812 0-13.613281-6.109375-13.613281-13.617188 0-7.507812 6.105469-13.613281 13.613281-13.613281 7.507813 0 13.617188 6.105469 13.617188 13.613281 0 7.507813-6.109375 13.617188-13.617188 13.617188zm0 0"/><path d="m465.136719 126.734375h-236.277344c-4.277344 0-7.742187 3.464844-7.742187 7.738281 0 4.277344 3.464843 7.742188 7.742187 7.742188h236.28125c4.273437 0 7.738281-3.464844 7.738281-7.742188 0-4.273437-3.464844-7.738281-7.742187-7.738281zm0 0"/><path d="m228.859375 177.136719h153.03125c4.273437 0 7.742187-3.464844 7.742187-7.742188 0-4.277343-3.46875-7.742187-7.742187-7.742187h-153.03125c-4.277344 0-7.742187 3.464844-7.742187 7.742187 0 4.277344 3.464843 7.742188 7.742187 7.742188zm0 0"/><path d="m290.222656 196.027344h-61.363281c-4.277344 0-7.742187 3.464844-7.742187 7.738281 0 4.277344 3.464843 7.742187 7.742187 7.742187h61.363281c4.273438 0 7.742188-3.464843 7.742188-7.742187 0-4.273437-3.46875-7.738281-7.742188-7.738281zm0 0"/><path d="m451.605469 38.46875h-26.300781c-4.277344 0-7.742188 3.464844-7.742188 7.742188 0 4.277343 3.464844 7.742187 7.742188 7.742187h26.300781c3.195312 0 5.792969 2.597656 5.792969 5.789063v1.695312c0 3.191406-2.597657 5.789062-5.792969 5.789062h-396.632813c-3.191406 0-5.789062-2.597656-5.789062-5.789062v-1.695312c0-3.191407 2.597656-5.789063 5.789062-5.789063h332.3125c4.277344 0 7.742188-3.464844 7.742188-7.742187 0-4.277344-3.464844-7.742188-7.742188-7.742188h-332.3125c-11.730468 0-21.273437 9.542969-21.273437 21.273438v1.695312c0 11.726562 9.542969 21.273438 21.273437 21.273438h396.632813c11.730469 0 21.273437-9.546876 21.273437-21.273438v-1.695312c0-11.730469-9.542968-21.273438-21.273437-21.273438zm0 0"/><path d="m461.230469 233.824219c-7.550781 5.703125-17.601563 13.769531-27.621094 10.164062-4.96875-1.789062-9.457031-3.175781-14.492187-.417969-1.238282.683594-2.4375 1.496094-3.609376 2.378907-.820312-5.597657-6.136718-9.269531-11.589843-6.332031-3.777344 2.035156-7.664063 3.699218-11.714844 4.980468 2.632813-7.242187 3.558594-15.96875.539063-23.183594-3.71875-8.882812-13.683594-12.003906-22.191407-7.769531-7.496093 3.722657-13.8125 12.859375-16.796875 20.480469-3.140625 8.027344-1.511718 16.675781 5.039063 22.507812.710937.632813 1.453125 1.195313 2.210937 1.726563-5.339844 3.390625-11.207031 6.050781-16.925781 8.554687-3.859375 1.6875-4.671875 7.261719-2.777344 10.589844 2.265625 3.976563 6.785157 4.445313 10.59375 2.777344 10.09375-4.417969 20.117188-9.78125 27.988281-17.273438 7.242188-.375 14.765626-2.492187 21.484376-5.175781.144531 1.289063.285156 2.582031.429687 3.871094.75 6.722656 7.882813 10.136719 13.214844 5.472656 2.324219-2.03125 4.648437-4.0625 6.972656-6.09375 1.03125-.902343 2.054687-1.820312 3.097656-2.710937 1.28125-1.09375-.339843-1.210938 1.648438-.597656 4.875 1.515624 9.097656 3.058593 14.34375 2.546874 10.570312-1.03125 19.691406-6.878906 27.972656-13.128906 3.359375-2.539062 5.015625-6.652344 2.773437-10.589844-1.878906-3.304687-7.257812-5.289062-10.589843-2.777343zm-92.566407 4.703125c1.695313-3.515625 5.273438-9.722656 9.140626-11.199219.21875-.085937.488281-.132813.75-.128906-.386719.113281.257812 1.113281.375 1.828125.382812 2.363281.167968 4.847656-.335938 7.171875-.851562 3.917969-2.660156 7.648437-5.035156 10.902343-.5625-.121093-1.109375-.265624-1.644532-.457031-4.097656-1.457031-5.152343-4.167969-3.25-8.117187zm0 0"/></svg>
