<?xml version="1.0" encoding="utf-8"?>
<svg id="master-artboard" viewBox="0 0 32.277610778808594 64.01040267944336" version="1.1" xmlns="http://www.w3.org/2000/svg" x="0px" y="0px" style="enable-background:new 0 0 1400 980;" width="32.277610778808594px" height="64.01040649414062px"><defs><radialGradient id="gradient-0" gradientUnits="objectBoundingBox" cx="0.5" cy="0.5" r="0.5">
                <stop offset="0" style="stop-color: #ffffff"/>
                <stop offset="1" style="stop-color: #cccccc"/>
              </radialGradient><style id="ee-google-fonts">@import url(https://fonts.googleapis.com/css?family=Roboto:100,100italic,300,300italic,400,400italic,500,500italic,700,700italic,900,900italic|Roboto+Mono:100,100italic,300,300italic,400,400italic,500,500italic,700,700italic);</style></defs><rect id="ee-background" x="0" y="0" width="32.277610778808594" height="64.01040649414062" style="fill: url('#gradient-0'); fill-opacity: 0; pointer-events: none;"/><g transform="matrix(-0.014717081561684607, 0.4742666184902191, -0.4742666184902191, -0.014717081561684607, 258.7152404785157, -13.829682350158693)"><g transform="matrix(0.9994469881057737, -0.03331459313631058, 0.03331459313631058, 0.9994469881057737, 6.550987570102279, -0.39384364474381073)">
		<path d="M 42.900001 511.200012 A 6.7 6.7 0 0 1 36.200001 517.900012 A 6.7 6.7 0 0 1 29.500001 511.200012 A 6.7 6.7 0 0 1 36.200001 504.500012 A 6.7 6.7 0 0 1 42.900001 511.200012 Z" style="fill: rgb(136, 61, 149); opacity: 1;"/>
		<path d="M 59.600001 511.200012 A 6.7 6.7 0 0 1 52.900002 517.900012 A 6.7 6.7 0 0 1 46.200002 511.200012 A 6.7 6.7 0 0 1 52.900002 504.500012 A 6.7 6.7 0 0 1 59.600001 511.200012 Z" style="fill: rgb(136, 61, 149); opacity: 1;"/>
		<path d="M 76.299998 511.200012 A 6.7 6.7 0 0 1 69.599998 517.900012 A 6.7 6.7 0 0 1 62.899999 511.200012 A 6.7 6.7 0 0 1 69.599998 504.500012 A 6.7 6.7 0 0 1 76.299998 511.200012 Z" style="fill: rgb(136, 61, 149); opacity: 1;"/>
		<path d="M 93.000003 511.200012 A 6.7 6.7 0 0 1 86.300003 517.900012 A 6.7 6.7 0 0 1 79.600003 511.200012 A 6.7 6.7 0 0 1 86.300003 504.500012 A 6.7 6.7 0 0 1 93.000003 511.200012 Z" style="fill: rgb(136, 61, 149); opacity: 1;"/>
		<path d="M 109.600001 511.200012 A 6.7 6.7 0 0 1 102.900002 517.900012 A 6.7 6.7 0 0 1 96.200002 511.200012 A 6.7 6.7 0 0 1 102.900002 504.500012 A 6.7 6.7 0 0 1 109.600001 511.200012 Z" style="fill: rgb(136, 61, 149); opacity: 1;"/>
		<path d="M 126.299998 511.200012 A 6.7 6.7 0 0 1 119.599998 517.900012 A 6.7 6.7 0 0 1 112.899999 511.200012 A 6.7 6.7 0 0 1 119.599998 504.500012 A 6.7 6.7 0 0 1 126.299998 511.200012 Z" style="fill: rgb(136, 61, 149); opacity: 1;"/>
		<path d="M 151.099994 511.200012 A 6.7 6.7 0 0 1 144.399994 517.900012 A 6.7 6.7 0 0 1 137.699994 511.200012 A 6.7 6.7 0 0 1 144.399994 504.500012 A 6.7 6.7 0 0 1 151.099994 511.200012 Z" style="fill: rgb(136, 61, 149); opacity: 1;"/>
		<path d="M131.9,506.4c3.7,0,6.7-3,6.7-6.8c0-3.7-3-6.7-6.7-6.7c-3.7,0-6.7,3-6.7,6.7C125.2,503.4,128.2,506.4,131.9,506.4z" style="fill: rgb(136, 61, 149); opacity: 1;"/>
		<path d="M 126.100001 488.100006 A 6.7 6.7 0 0 1 119.400002 494.800006 A 6.7 6.7 0 0 1 112.700002 488.100006 A 6.7 6.7 0 0 1 119.400002 481.400006 A 6.7 6.7 0 0 1 126.100001 488.100006 Z" style="fill: rgb(136, 61, 149); opacity: 1;"/>
		<path d="M 138.599994 522.799988 A 6.7 6.7 0 0 1 131.899994 529.499988 A 6.7 6.7 0 0 1 125.199994 522.799988 A 6.7 6.7 0 0 1 131.899994 516.099988 A 6.7 6.7 0 0 1 138.599994 522.799988 Z" style="fill: rgb(136, 61, 149); opacity: 1;"/>
		<path d="M 126.000003 534.299988 A 6.7 6.7 0 0 1 119.300003 540.999988 A 6.7 6.7 0 0 1 112.600003 534.299988 A 6.7 6.7 0 0 1 119.300003 527.599988 A 6.7 6.7 0 0 1 126.000003 534.299988 Z" style="fill: rgb(136, 61, 149); opacity: 1;"/>
	</g></g></svg>