<svg height="200" viewBox="0 0 64 64" width="200" xmlns="http://www.w3.org/2000/svg"><rect fill="#44add8" height="48" rx="3" width="50" x="7" y="10"/><path d="m57 13a3 3 0 0 0 -3-3h-44a3 3 0 0 0 -3 3v5h50z" fill="#3890ce"/><path d="m54 60h-47a3 3 0 0 1 -3-3v-3h24l3 2h4l3-2h16z" fill="#ccdce5"/><path d="m12 36h24v4h-24z" fill="#ffc119"/><circle cx="47" cy="29" fill="#ef5249" r="6"/><path d="m59 35a2 2 0 0 0 -2 2v-1a2 2 0 0 0 -4 0v-2a2 2 0 0 0 -4 0v-5a2 2 0 0 0 -4 0v10l-1.6.8a4.335 4.335 0 0 0 -.466 7.485l2.733 1.822a3 3 0 0 1 1.333 2.499v3.394h12v-5a18.949 18.949 0 0 0 2-8.472v-4.528a2 2 0 0 0 -2-2z" fill="#f5be9a"/><path d="m45 54h16v8h-16z" fill="#3890ce"/><path d="m4 53a1 1 0 0 0 -1 1v3a4 4 0 0 0 4 4h35v-2h-35a2 2 0 0 1 -2-2v-2h22.7l2.748 1.832a1.006 1.006 0 0 0 .552.168h4a1.006 1.006 0 0 0 .555-.168l2.745-1.832h3.7v-2h-4a1.006 1.006 0 0 0 -.555.168l-2.745 1.832h-3.4l-2.748-1.832a1.006 1.006 0 0 0 -.552-.168h-20v-34h48v11h2v-17a4 4 0 0 0 -4-4h-44a4 4 0 0 0 -4 4v40zm6-42h44a2 2 0 0 1 2 2v4h-48v-4a2 2 0 0 1 2-2z"/><path d="m10 13h2v2h-2z"/><path d="m14 13h2v2h-2z"/><path d="m18 13h2v2h-2z"/><path d="m37 25a3 3 0 0 0 -3-3h-6a3 3 0 0 0 -3 3v1h-2v-1a3 3 0 0 0 -3-3h-6a3 3 0 0 0 -3 3v4a3 3 0 0 0 3 3h6a3 3 0 0 0 3-3v-1h2v1a3 3 0 0 0 3 3h6a3 3 0 0 0 3-3zm-16 4a1 1 0 0 1 -1 1h-6a1 1 0 0 1 -1-1v-4a1 1 0 0 1 1-1h6a1 1 0 0 1 1 1v1h-2v2h2zm14 0a1 1 0 0 1 -1 1h-6a1 1 0 0 1 -1-1v-1h2v-2h-2v-1a1 1 0 0 1 1-1h6a1 1 0 0 1 1 1z"/><path d="m56 57h2v2h-2z"/><path d="m59 34a2.967 2.967 0 0 0 -1.471.4 2.972 2.972 0 0 0 -3.645-1.181 2.95 2.95 0 0 0 -3.884-2.035v-2.184a3 3 0 0 0 -6 0v9.382l-1.051.525a5.336 5.336 0 0 0 -.573 9.212l2.733 1.822a2 2 0 0 1 .891 1.664v1.395h-1a1 1 0 0 0 -1 1v8h2v-7h14v7h2v-8a1 1 0 0 0 -1-1h-1v-2.767a20.05 20.05 0 0 0 2-8.7v-4.533a3 3 0 0 0 -3-3zm1 7.528a18.023 18.023 0 0 1 -1.9 8.025 1 1 0 0 0 -.1.447v3h-10v-1.4a3.992 3.992 0 0 0 -1.781-3.328l-2.734-1.822a3.336 3.336 0 0 1 .359-5.759l.156-.073v2.382h2v-14a1 1 0 0 1 2 0v9h2v-4a1 1 0 0 1 2 0v5h2v-3a1 1 0 0 1 2 0v4h2v-3a1 1 0 0 1 2 0z"/><path d="m53.9 30.166a7 7 0 1 0 -12.12 3.5l1.49-1.334a5 5 0 1 1 8.658-2.5z"/><path d="m37 36a1 1 0 0 0 -1-1h-24a1 1 0 0 0 -1 1v4a1 1 0 0 0 1 1h24a1 1 0 0 0 1-1zm-2 3h-22v-2h22z"/><path d="m13 44h2v2h-2z"/><path d="m17 44h20v2h-20z"/><path d="m11 48h24v2h-24z"/><path d="m13 5h30v2h-30z"/><path d="m45 5h2v2h-2z"/></svg>
