<?xml version="1.0" encoding="utf-8"?>
<svg viewBox="0 0 700 800" version="1.1" xmlns="http://www.w3.org/2000/svg" x="0px" y="0px" width="700" height="700"><defs><radialGradient id="gradient-0" gradientUnits="objectBoundingBox" cx="0.5" cy="0.5" r="0.5">
                <stop offset="0" style="stop-color: #ffffff"/>
                <stop offset="1" style="stop-color: #cccccc"/>
              </radialGradient></defs><g transform="matrix(0.5179397463798523, 0, 0, 0.5179397463798523, -194.62564849853516, -179.2735595703125)"><g id="g-7" transform="matrix(1, 0, 0, 1, 757, -45)">
	<g>

		<g>
			<g>
				<path class="st719" d="M250,651c-0.9,0-1.7-0.2-2.5-0.7l-100-58c-1.5-0.9-2.5-2.5-2.5-4.3V472c0-1.8,1-3.5,2.6-4.4&#10;&#9;&#9;&#9;&#9;&#9;c0.1,0,0.1-0.1,0.2-0.1l99.7-57.9c0.8-0.5,1.6-0.7,2.5-0.7s1.7,0.2,2.5,0.7l99.8,57.9c0,0,0.1,0,0.1,0c1.6,0.9,2.6,2.6,2.6,4.4&#10;&#9;&#9;&#9;&#9;&#9;v116c0,1.8-0.9,3.4-2.5,4.3l-100,58C251.7,650.8,250.9,651,250,651L250,651z" style="fill: rgb(56, 112, 164); stroke: rgb(42, 98, 143); stroke-width: 3;"/>
			</g>
			<g>
				<g>
					<g>
						<path d="M 250 646 L 350 588 L 350 472 L 250 530 Z" class="st1" style="fill: rgb(56, 112, 164); stroke: rgb(42, 98, 143); stroke-width: 3;"/>
					</g>
					<g>
						<path d="M 250 646 L 150 588 L 150 472 L 250 530 Z" class="st2" style="fill: rgb(56, 112, 164); stroke: rgb(42, 98, 143); stroke-width: 3;"/>
					</g>
					<g>
						<path d="M 350 472 L 250 414 L 150 472 L 250 530 Z" class="st3" style="fill: rgb(56, 112, 164); stroke: rgb(42, 98, 143); stroke-width: 3;"/>
					</g>
				</g>



			</g>
		</g>
	</g>
</g></g><g transform="matrix(0.5179397463798523, 0, 0, 0.5179397463798523, -276.9202346801758, -129.89678955078125)"><g id="g-6" transform="matrix(1, 0, 0, 1, 757, -45)">
	<g>

		<g>
			<g>
				<path class="st719" d="M250,651c-0.9,0-1.7-0.2-2.5-0.7l-100-58c-1.5-0.9-2.5-2.5-2.5-4.3V472c0-1.8,1-3.5,2.6-4.4&#10;&#9;&#9;&#9;&#9;&#9;c0.1,0,0.1-0.1,0.2-0.1l99.7-57.9c0.8-0.5,1.6-0.7,2.5-0.7s1.7,0.2,2.5,0.7l99.8,57.9c0,0,0.1,0,0.1,0c1.6,0.9,2.6,2.6,2.6,4.4&#10;&#9;&#9;&#9;&#9;&#9;v116c0,1.8-0.9,3.4-2.5,4.3l-100,58C251.7,650.8,250.9,651,250,651L250,651z" style="fill: rgb(56, 111, 164); stroke: rgb(42, 98, 143); stroke-width: 3;"/>
			</g>
			<g>
				<g>
					<g>
						<path d="M 250 646 L 350 588 L 350 472 L 250 530 Z" class="st1" style="fill: rgb(56, 111, 164); stroke: rgb(42, 98, 143); stroke-width: 3;"/>
					</g>
					<g>
						<path d="M 250 646 L 150 588 L 150 472 L 250 530 Z" class="st2" style="fill: rgb(56, 111, 164); stroke: rgb(42, 98, 143); stroke-width: 3;"/>
					</g>
					<g>
						<path d="M 350 472 L 250 414 L 150 472 L 250 530 Z" class="st3" style="fill: rgb(56, 111, 164); stroke: rgb(42, 98, 143); stroke-width: 3;"/>
					</g>
				</g>



			</g>
		</g>
	</g>
</g></g><g transform="matrix(0.5179397463798523, 0, 0, 0.5179397463798523, -376.90152740478516, -63.87266159057617)"><g id="g-2" transform="matrix(1, 0, 0, 1, 757, -45)">
	<g>

		<g>
			<g>
				<path class="st719" d="M250,651c-0.9,0-1.7-0.2-2.5-0.7l-100-58c-1.5-0.9-2.5-2.5-2.5-4.3V472c0-1.8,1-3.5,2.6-4.4&#10;&#9;&#9;&#9;&#9;&#9;c0.1,0,0.1-0.1,0.2-0.1l99.7-57.9c0.8-0.5,1.6-0.7,2.5-0.7s1.7,0.2,2.5,0.7l99.8,57.9c0,0,0.1,0,0.1,0c1.6,0.9,2.6,2.6,2.6,4.4&#10;&#9;&#9;&#9;&#9;&#9;v116c0,1.8-0.9,3.4-2.5,4.3l-100,58C251.7,650.8,250.9,651,250,651L250,651z" style="fill: rgb(40, 56, 69); stroke: rgb(42, 98, 143); stroke-width: 3;"/>
			</g>
			<g>
				<g>
					<g>
						<path d="M 250 646 L 350 588 L 350 472 L 250 530 Z" class="st1" style="fill: rgb(40, 56, 69); stroke: rgb(42, 98, 143); stroke-width: 3;"/>
					</g>
					<g>
						<path d="M 250 646 L 150 588 L 150 472 L 250 530 Z" class="st2" style="fill: rgb(40, 56, 69); stroke: rgb(42, 98, 143); stroke-width: 3;"/>
					</g>
					<g>
						<path d="M 350 472 L 250 414 L 150 472 L 250 530 Z" class="st3" style="fill: rgb(40, 56, 69); stroke: rgb(42, 98, 143); stroke-width: 3;"/>
					</g>
				</g>



			</g>
		</g>
	</g>
</g></g><g transform="matrix(0.5179397463798523, 0, 0, 0.5179397463798523, -453.34915924072266, -15.572183609008789)"><g id="logo" transform="matrix(1, 0, 0, 1, 757, -45)">
	<g>

		<g>
			<g>
				<path class="st719" d="M250,651c-0.9,0-1.7-0.2-2.5-0.7l-100-58c-1.5-0.9-2.5-2.5-2.5-4.3V472c0-1.8,1-3.5,2.6-4.4&#10;&#9;&#9;&#9;&#9;&#9;c0.1,0,0.1-0.1,0.2-0.1l99.7-57.9c0.8-0.5,1.6-0.7,2.5-0.7s1.7,0.2,2.5,0.7l99.8,57.9c0,0,0.1,0,0.1,0c1.6,0.9,2.6,2.6,2.6,4.4&#10;&#9;&#9;&#9;&#9;&#9;v116c0,1.8-0.9,3.4-2.5,4.3l-100,58C251.7,650.8,250.9,651,250,651L250,651z" style="fill: rgb(40, 56, 69); stroke: rgb(42, 98, 143); stroke-width: 3;"/>
			</g>
			<g>
				<g>
					<g>
						<path d="M 250 646 L 350 588 L 350 472 L 250 530 Z" class="st1" style="fill: rgb(40, 56, 69); stroke: rgb(42, 98, 143); stroke-width: 3;"/>
					</g>
					<g>
						<path d="M 250 646 L 150 588 L 150 472 L 250 530 Z" class="st2" style="fill: rgb(40, 56, 69); stroke: rgb(42, 98, 143); stroke-width: 3;"/>
					</g>
					<g>
						<path d="M 350 472 L 250 414 L 150 472 L 250 530 Z" class="st3" style="fill: rgb(40, 56, 69); stroke: rgb(42, 98, 143); stroke-width: 3;"/>
					</g>
				</g>



			</g>
		</g>
	</g>
</g></g>
  <g transform="matrix(0.5179397463798523, 0, 0, 0.5179397463798523, -380.1933059692383, 30.491811752319336)"><g id="g-1" transform="matrix(1, 0, 0, 1, 757, -45)">
	<g>

		<g>
			<g>
				<path class="st719" d="M250,651c-0.9,0-1.7-0.2-2.5-0.7l-100-58c-1.5-0.9-2.5-2.5-2.5-4.3V472c0-1.8,1-3.5,2.6-4.4&#10;&#9;&#9;&#9;&#9;&#9;c0.1,0,0.1-0.1,0.2-0.1l99.7-57.9c0.8-0.5,1.6-0.7,2.5-0.7s1.7,0.2,2.5,0.7l99.8,57.9c0,0,0.1,0,0.1,0c1.6,0.9,2.6,2.6,2.6,4.4&#10;&#9;&#9;&#9;&#9;&#9;v116c0,1.8-0.9,3.4-2.5,4.3l-100,58C251.7,650.8,250.9,651,250,651L250,651z" style="fill: rgb(40, 56, 69); stroke: rgb(42, 98, 143); stroke-width: 3;"/>
			</g>
			<g>
				<g>
					<g>
						<path d="M 250 646 L 350 588 L 350 472 L 250 530 Z" class="st1" style="fill: rgb(40, 56, 69); stroke: rgb(42, 98, 143); stroke-width: 3;"/>
					</g>
					<g>
						<path d="M 250 646 L 150 588 L 150 472 L 250 530 Z" class="st2" style="fill: rgb(40, 56, 69); stroke: rgb(42, 98, 143); stroke-width: 3;"/>
					</g>
					<g>
						<path d="M 350 472 L 250 414 L 150 472 L 250 530 Z" class="st3" style="fill: rgb(40, 56, 69); stroke: rgb(42, 98, 143); stroke-width: 3;"/>
					</g>
				</g>



			</g>
		</g>
	</g>
</g></g><g transform="matrix(0.5179397463798523, 0, 0, 0.5179397463798523, -115.62281036376953, -132.09130859375)"><g id="g-8" transform="matrix(1, 0, 0, 1, 757, -45)">
	<g>

		<g>
			<g>
				<path class="st719" d="M250,651c-0.9,0-1.7-0.2-2.5-0.7l-100-58c-1.5-0.9-2.5-2.5-2.5-4.3V472c0-1.8,1-3.5,2.6-4.4&#10;&#9;&#9;&#9;&#9;&#9;c0.1,0,0.1-0.1,0.2-0.1l99.7-57.9c0.8-0.5,1.6-0.7,2.5-0.7s1.7,0.2,2.5,0.7l99.8,57.9c0,0,0.1,0,0.1,0c1.6,0.9,2.6,2.6,2.6,4.4&#10;&#9;&#9;&#9;&#9;&#9;v116c0,1.8-0.9,3.4-2.5,4.3l-100,58C251.7,650.8,250.9,651,250,651L250,651z" style="fill: rgb(56, 111, 164); stroke: rgb(42, 98, 143); stroke-width: 3;"/>
			</g>
			<g>
				<g>
					<g>
						<path d="M 250 646 L 350 588 L 350 472 L 250 530 Z" class="st1" style="fill: rgb(56, 111, 164); stroke: rgb(42, 98, 143); stroke-width: 3;"/>
					</g>
					<g>
						<path d="M 250 646 L 150 588 L 150 472 L 250 530 Z" class="st2" style="fill: rgb(56, 111, 164); stroke: rgb(42, 98, 143); stroke-width: 3;"/>
					</g>
					<g>
						<path d="M 350 472 L 250 414 L 150 472 L 250 530 Z" class="st3" style="fill: rgb(56, 111, 164); stroke: rgb(42, 98, 143); stroke-width: 3;"/>
					</g>
				</g>



			</g>
		</g>
	</g>
</g></g><g transform="matrix(0.5179397463798523, 0, 0, 0.5179397463798523, -14.9068603515625, -75.33345031738281)"><g id="g-11" transform="matrix(1, 0, 0, 1, 757, -45)">
	<g>

		<g>
			<g>
				<path class="st719" d="M250,651c-0.9,0-1.7-0.2-2.5-0.7l-100-58c-1.5-0.9-2.5-2.5-2.5-4.3V472c0-1.8,1-3.5,2.6-4.4&#10;&#9;&#9;&#9;&#9;&#9;c0.1,0,0.1-0.1,0.2-0.1l99.7-57.9c0.8-0.5,1.6-0.7,2.5-0.7s1.7,0.2,2.5,0.7l99.8,57.9c0,0,0.1,0,0.1,0c1.6,0.9,2.6,2.6,2.6,4.4&#10;&#9;&#9;&#9;&#9;&#9;v116c0,1.8-0.9,3.4-2.5,4.3l-100,58C251.7,650.8,250.9,651,250,651L250,651z" style="fill: rgb(89, 165, 216); stroke: rgb(42, 98, 143); stroke-width: 3;"/>
			</g>
			<g>
				<g>
					<g>
						<path d="M 250 646 L 350 588 L 350 472 L 250 530 Z" class="st1" style="fill: rgb(89, 165, 216); stroke: rgb(42, 98, 143); stroke-width: 3;"/>
					</g>
					<g>
						<path d="M 250 646 L 150 588 L 150 472 L 250 530 Z" class="st2" style="fill: rgb(89, 165, 216); stroke: rgb(42, 98, 143); stroke-width: 3;"/>
					</g>
					<g>
						<path d="M 350 472 L 250 414 L 150 472 L 250 530 Z" class="st3" style="fill: rgb(89, 165, 216); stroke: rgb(42, 98, 143); stroke-width: 3;"/>
					</g>
				</g>



			</g>
		</g>
	</g>
</g></g><g transform="matrix(0.5179397463798523, 0, 0, 0.5179397463798523, 61.832855224609375, -30.27716636657715)"><g id="g-10" transform="matrix(1, 0, 0, 1, 757, -45)">
	<g>

		<g>
			<g>
				<path class="st719" d="M250,651c-0.9,0-1.7-0.2-2.5-0.7l-100-58c-1.5-0.9-2.5-2.5-2.5-4.3V472c0-1.8,1-3.5,2.6-4.4&#10;&#9;&#9;&#9;&#9;&#9;c0.1,0,0.1-0.1,0.2-0.1l99.7-57.9c0.8-0.5,1.6-0.7,2.5-0.7s1.7,0.2,2.5,0.7l99.8,57.9c0,0,0.1,0,0.1,0c1.6,0.9,2.6,2.6,2.6,4.4&#10;&#9;&#9;&#9;&#9;&#9;v116c0,1.8-0.9,3.4-2.5,4.3l-100,58C251.7,650.8,250.9,651,250,651L250,651z" style="fill: rgb(89, 165, 216); stroke: rgb(42, 98, 143); stroke-width: 3;"/>
			</g>
			<g>
				<g>
					<g>
						<path d="M 250 646 L 350 588 L 350 472 L 250 530 Z" class="st1" style="fill: rgb(89, 165, 216); stroke: rgb(42, 98, 143); stroke-width: 3;"/>
					</g>
					<g>
						<path d="M 250 646 L 150 588 L 150 472 L 250 530 Z" class="st2" style="fill: rgb(89, 165, 216); stroke: rgb(42, 98, 143); stroke-width: 3;"/>
					</g>
					<g>
						<path d="M 350 472 L 250 414 L 150 472 L 250 530 Z" class="st3" style="fill: rgb(89, 165, 216); stroke: rgb(42, 98, 143); stroke-width: 3;"/>
					</g>
				</g>



			</g>
		</g>
	</g>
</g></g><g transform="matrix(0.5179397463798523, 0, 0, 0.5179397463798523, -11.5465087890625, 23.351482391357422)"><g id="g-9" transform="matrix(1, 0, 0, 1, 757, -45)">
	<g>

		<g>
			<g>
				<path class="st719" d="M250,651c-0.9,0-1.7-0.2-2.5-0.7l-100-58c-1.5-0.9-2.5-2.5-2.5-4.3V472c0-1.8,1-3.5,2.6-4.4&#10;&#9;&#9;&#9;&#9;&#9;c0.1,0,0.1-0.1,0.2-0.1l99.7-57.9c0.8-0.5,1.6-0.7,2.5-0.7s1.7,0.2,2.5,0.7l99.8,57.9c0,0,0.1,0,0.1,0c1.6,0.9,2.6,2.6,2.6,4.4&#10;&#9;&#9;&#9;&#9;&#9;v116c0,1.8-0.9,3.4-2.5,4.3l-100,58C251.7,650.8,250.9,651,250,651L250,651z" style="fill: rgb(89, 165, 216); stroke: rgb(42, 98, 143); stroke-width: 3;"/>
			</g>
			<g>
				<g>
					<g>
						<path d="M 250 646 L 350 588 L 350 472 L 250 530 Z" class="st1" style="fill: rgb(89, 165, 216); stroke: rgb(42, 98, 143); stroke-width: 3;"/>
					</g>
					<g>
						<path d="M 250 646 L 150 588 L 150 472 L 250 530 Z" class="st2" style="fill: rgb(89, 165, 216); stroke: rgb(42, 98, 143); stroke-width: 3;"/>
					</g>
					<g>
						<path d="M 350 472 L 250 414 L 150 472 L 250 530 Z" class="st3" style="fill: rgb(89, 165, 216); stroke: rgb(42, 98, 143); stroke-width: 3;"/>
					</g>
				</g>



			</g>
		</g>
	</g>
</g></g><g transform="matrix(0.5179397463798523, 0, 0, 0.5179397463798523, -111.05162811279297, 87.3753433227539)"><g id="g-3" transform="matrix(1, 0, 0, 1, 757, -45)">
	<g>

		<g>
			<g>
				<path class="st719" d="M250,651c-0.9,0-1.7-0.2-2.5-0.7l-100-58c-1.5-0.9-2.5-2.5-2.5-4.3V472c0-1.8,1-3.5,2.6-4.4&#10;&#9;&#9;&#9;&#9;&#9;c0.1,0,0.1-0.1,0.2-0.1l99.7-57.9c0.8-0.5,1.6-0.7,2.5-0.7s1.7,0.2,2.5,0.7l99.8,57.9c0,0,0.1,0,0.1,0c1.6,0.9,2.6,2.6,2.6,4.4&#10;&#9;&#9;&#9;&#9;&#9;v116c0,1.8-0.9,3.4-2.5,4.3l-100,58C251.7,650.8,250.9,651,250,651L250,651z" style="fill: rgb(39, 71, 110); stroke: rgb(42, 98, 143); stroke-width: 3;"/>
			</g>
			<g>
				<g>
					<g>
						<path d="M 250 646 L 350 588 L 350 472 L 250 530 Z" class="st1" style="fill: rgb(39, 71, 110); stroke: rgb(42, 98, 143); stroke-width: 3;"/>
					</g>
					<g>
						<path d="M 250 646 L 150 588 L 150 472 L 250 530 Z" class="st2" style="fill: rgb(39, 71, 110); stroke: rgb(42, 98, 143); stroke-width: 3;"/>
					</g>
					<g>
						<path d="M 350 472 L 250 414 L 150 472 L 250 530 Z" class="st3" style="fill: rgb(39, 71, 110); stroke: rgb(42, 98, 143); stroke-width: 3;"/>
					</g>
				</g>



			</g>
		</g>
	</g>
</g></g><g transform="matrix(0.5179397463798523, 0, 0, 0.5179397463798523, -259.91849517822266, 90.68810272216797)"><g id="g-4" transform="matrix(1, 0, 0, 1, 757, -45)">
	<g>

		<g>
			<g>
				<path class="st719" d="M250,651c-0.9,0-1.7-0.2-2.5-0.7l-100-58c-1.5-0.9-2.5-2.5-2.5-4.3V472c0-1.8,1-3.5,2.6-4.4&#10;&#9;&#9;&#9;&#9;&#9;c0.1,0,0.1-0.1,0.2-0.1l99.7-57.9c0.8-0.5,1.6-0.7,2.5-0.7s1.7,0.2,2.5,0.7l99.8,57.9c0,0,0.1,0,0.1,0c1.6,0.9,2.6,2.6,2.6,4.4&#10;&#9;&#9;&#9;&#9;&#9;v116c0,1.8-0.9,3.4-2.5,4.3l-100,58C251.7,650.8,250.9,651,250,651L250,651z" style="fill: rgb(39, 71, 110); stroke: rgb(42, 98, 143); stroke-width: 3;"/>
			</g>
			<g>
				<g>
					<g>
						<path d="M 250 646 L 350 588 L 350 472 L 250 530 Z" class="st1" style="fill: rgb(39, 71, 110); stroke: rgb(42, 98, 143); stroke-width: 3;"/>
					</g>
					<g>
						<path d="M 250 646 L 150 588 L 150 472 L 250 530 Z" class="st2" style="fill: rgb(39, 71, 110); stroke: rgb(42, 98, 143); stroke-width: 3;"/>
					</g>
					<g>
						<path d="M 350 472 L 250 414 L 150 472 L 250 530 Z" class="st3" style="fill: rgb(39, 71, 110); stroke: rgb(42, 98, 143); stroke-width: 3;"/>
					</g>
				</g>



			</g>
		</g>
	</g>
</g></g><g transform="matrix(0.5179397463798523, 0, 0, 0.5179397463798523, -186.76264190673828, 136.75209045410156)"><g id="g-5" transform="matrix(1, 0, 0, 1, 757, -45)">
	<g>

		<g>
			<g>
				<path class="st719" d="M250,651c-0.9,0-1.7-0.2-2.5-0.7l-100-58c-1.5-0.9-2.5-2.5-2.5-4.3V472c0-1.8,1-3.5,2.6-4.4&#10;&#9;&#9;&#9;&#9;&#9;c0.1,0,0.1-0.1,0.2-0.1l99.7-57.9c0.8-0.5,1.6-0.7,2.5-0.7s1.7,0.2,2.5,0.7l99.8,57.9c0,0,0.1,0,0.1,0c1.6,0.9,2.6,2.6,2.6,4.4&#10;&#9;&#9;&#9;&#9;&#9;v116c0,1.8-0.9,3.4-2.5,4.3l-100,58C251.7,650.8,250.9,651,250,651L250,651z" style="fill: rgb(39, 71, 110); stroke: rgb(42, 98, 143); stroke-width: 3;"/>
			</g>
			<g>
				<g>
					<g>
						<path d="M 250 646 L 350 588 L 350 472 L 250 530 Z" class="st1" style="fill: rgb(39, 71, 110); stroke: rgb(42, 98, 143); stroke-width: 3;"/>
					</g>
					<g>
						<path d="M 250 646 L 150 588 L 150 472 L 250 530 Z" class="st2" style="fill: rgb(39, 71, 110); stroke: rgb(42, 98, 143); stroke-width: 3;"/>
					</g>
					<g>
						<path d="M 350 472 L 250 414 L 150 472 L 250 530 Z" class="st3" style="fill: rgb(39, 71, 110); stroke: rgb(42, 98, 143); stroke-width: 3;"/>
					</g>
				</g>



			</g>
		</g>
	</g>
</g></g><rect id="ee-background" x="0" y="0" width="654.8936157226562" height="457.7644958496094" style="fill: url('#gradient-0'); fill-opacity: 0; pointer-events: none;"/></svg>
