<svg height="65pt" viewBox="-12 1 511 511.999" width="65pt" xmlns="http://www.w3.org/2000/svg"><path d="m480.65625 37.652344c0 16.640625-13.488281 30.128906-30.125 30.128906-16.640625 0-30.128906-13.488281-30.128906-30.128906 0-16.636719 13.488281-30.125 30.128906-30.125 16.636719 0 30.125 13.488281 30.125 30.125zm0 0" fill="#f9cd45"/><path d="m450.53125 7.527344c-4.285156 0-8.355469.902344-12.046875 2.511718 10.640625 4.648438 18.078125 15.261719 18.078125 27.613282 0 12.355468-7.4375 22.964844-18.078125 27.613281 3.691406 1.613281 7.761719 2.511719 12.046875 2.511719 16.636719 0 30.125-13.488282 30.125-30.125 0-16.636719-13.488281-30.125-30.125-30.125zm0 0" fill="#f8b53c"/><path d="m390.566406 256.976562c0-81.882812-65.925781-148.265624-147.246094-148.265624-81.320312 0-147.246093 66.382812-147.246093 148.265624 0 81.886719 65.925781 148.269532 147.246093 148.269532 81.320313 0 147.246094-66.382813 147.246094-148.269532zm0 0" fill="#f9cd45"/><path d="m244.339844 108.710938c-4.054688 0-8.070313.167968-12.042969.488281 76.25 6.132812 136.21875 69.949219 136.21875 147.777343 0 77.832032-59.96875 141.648438-136.21875 147.78125 3.972656.316407 7.988281.488282 12.042969.488282 81.886718 0 148.269531-66.382813 148.269531-148.269532 0-81.882812-66.382813-148.265624-148.269531-148.265624zm0 0" fill="#f8b53c"/><path d="m230.253906 355.023438.429688-.742188v-191.28125h-36.703125v104.160156h-31.820313zm0 0" fill="#f45a3c"/><path d="m254.894531 163-.429687.742188v191.28125h36.707031v-104.160157h31.816406zm0 0" fill="#4890e3"/><path d="m275.050781 37.652344c0 16.640625-13.488281 30.128906-30.125 30.128906s-30.125-13.488281-30.125-30.128906c0-16.636719 13.488281-30.125 30.125-30.125s30.125 13.488281 30.125 30.125zm0 0" fill="#f9cd45"/><path d="m244.925781 7.527344c-4.285156 0-8.355469.902344-12.046875 2.511718 10.640625 4.648438 18.082032 15.261719 18.082032 27.613282 0 12.355468-7.441407 22.964844-18.082032 27.613281 3.691406 1.613281 7.761719 2.511719 12.046875 2.511719 16.636719 0 30.125-13.488282 30.125-30.125 0-16.636719-13.488281-30.125-30.125-30.125zm0 0" fill="#f8b53c"/><path d="m69.445312 37.652344c0 16.640625-13.488281 30.128906-30.125 30.128906-16.636718 0-30.125-13.488281-30.125-30.128906 0-16.636719 13.488282-30.125 30.125-30.125 16.636719 0 30.125 13.488281 30.125 30.125zm0 0" fill="#f9cd45"/><path d="m39.320312 7.527344c-4.285156 0-8.355468.902344-12.046874 2.511718 10.640624 4.648438 18.082031 15.261719 18.082031 27.613282 0 12.355468-7.441407 22.964844-18.082031 27.613281 3.691406 1.613281 7.761718 2.511719 12.046874 2.511719 16.636719 0 30.125-13.488282 30.125-30.125 0-16.636719-13.488281-30.125-30.125-30.125zm0 0" fill="#f8b53c"/><path d="m480.65625 474.347656c0 16.636719-13.488281 30.125-30.125 30.125-16.640625 0-30.128906-13.488281-30.128906-30.125 0-16.640625 13.488281-30.128906 30.128906-30.128906 16.636719 0 30.125 13.488281 30.125 30.128906zm0 0" fill="#f9cd45"/><path d="m450.53125 444.21875c-4.285156 0-8.355469.902344-12.046875 2.511719 10.640625 4.648437 18.078125 15.261719 18.078125 27.613281 0 12.355469-7.4375 22.964844-18.078125 27.613281 3.691406 1.613281 7.761719 2.511719 12.046875 2.511719 16.636719 0 30.125-13.488281 30.125-30.125s-13.488281-30.125-30.125-30.125zm0 0" fill="#f8b53c"/><path d="m480.65625 259.011719c0 16.636719-13.488281 30.125-30.125 30.125-16.640625 0-30.128906-13.488281-30.128906-30.125s13.488281-30.125 30.128906-30.125c16.636719 0 30.125 13.488281 30.125 30.125zm0 0" fill="#f9cd45"/><path d="m450.53125 228.886719c-4.285156 0-8.355469.898437-12.046875 2.511719 10.640625 4.648437 18.078125 15.257812 18.078125 27.613281 0 12.351562-7.4375 22.964843-18.078125 27.613281 3.691406 1.609375 7.761719 2.511719 12.046875 2.511719 16.636719 0 30.125-13.488281 30.125-30.128907 0-16.632812-13.488281-30.121093-30.125-30.121093zm0 0" fill="#f8b53c"/><path d="m68.277344 259.011719c0 16.636719-13.488282 30.125-30.125 30.125-16.636719 0-30.125-13.488281-30.125-30.125s13.488281-30.125 30.125-30.125c16.636718 0 30.125 13.488281 30.125 30.125zm0 0" fill="#f9cd45"/><path d="m38.152344 228.886719c-4.285156 0-8.355469.898437-12.046875 2.511719 10.640625 4.648437 18.082031 15.257812 18.082031 27.613281 0 12.351562-7.441406 22.964843-18.082031 27.613281 3.691406 1.609375 7.761719 2.511719 12.046875 2.511719 16.636718 0 30.125-13.488281 30.125-30.128907 0-16.632812-13.488282-30.121093-30.125-30.121093zm0 0" fill="#f8b53c"/><path d="m275.050781 474.347656c0 16.636719-13.488281 30.125-30.125 30.125s-30.125-13.488281-30.125-30.125c0-16.640625 13.488281-30.128906 30.125-30.128906s30.125 13.488281 30.125 30.128906zm0 0" fill="#f9cd45"/><path d="m244.925781 444.21875c-4.285156 0-8.355469.902344-12.046875 2.511719 10.640625 4.648437 18.082032 15.261719 18.082032 27.613281 0 12.355469-7.441407 22.964844-18.082032 27.613281 3.691406 1.613281 7.761719 2.511719 12.046875 2.511719 16.636719 0 30.125-13.488281 30.125-30.125s-13.488281-30.125-30.125-30.125zm0 0" fill="#f8b53c"/><path d="m69.445312 474.347656c0 16.636719-13.488281 30.125-30.125 30.125-16.636718 0-30.125-13.488281-30.125-30.125 0-16.640625 13.488282-30.128906 30.125-30.128906 16.636719 0 30.125 13.488281 30.125 30.128906zm0 0" fill="#f9cd45"/><path d="m39.320312 444.21875c-4.285156 0-8.355468.902344-12.046874 2.511719 10.640624 4.648437 18.082031 15.261719 18.082031 27.613281 0 12.355469-7.441407 22.964844-18.082031 27.613281 3.691406 1.613281 7.761718 2.511719 12.046874 2.511719 16.636719 0 30.125-13.488281 30.125-30.125s-13.488281-30.125-30.125-30.125zm0 0" fill="#f8b53c"/><g fill="#18191b"><path d="m383.027344 310.0625c3.957031 1.285156 8.203125-.878906 9.492187-4.832031 4.28125-13.164063 6.769531-26.832031 7.429688-40.722657h13.332031c2.667969 18.164063 18.351562 32.15625 37.25 32.15625 20.761719 0 37.652344-16.890624 37.652344-37.652343s-16.890625-37.65625-37.652344-37.65625c-17.460938 0-32.179688 11.945312-36.421875 28.09375h-14.15625c-1.75-36.605469-16.199219-69.9375-39.019531-95.6875h89.597656c4.15625 0 7.527344-3.371094 7.527344-7.527344v-71.683594c17.167968-3.496093 30.125-18.710937 30.125-36.898437 0-20.761719-16.890625-37.652344-37.652344-37.652344-20.765625 0-37.65625 16.890625-37.65625 37.652344 0 18.1875 12.957031 33.402344 30.125 36.898437v64.15625h-97.367188c-25.335937-21.734375-57.707031-35.484375-93.179687-37.3125v-26.84375c17.167969-3.496093 30.125-18.710937 30.125-36.898437 0-20.761719-16.890625-37.652344-37.652344-37.652344s-37.65625 16.890625-37.65625 37.652344c0 18.1875 12.960938 33.402344 30.128907 36.898437v26.792969c-35.929688 1.585938-68.734376 15.390625-94.351563 37.359375h-40.570313c-4.160156 0-7.527343 3.371094-7.527343 7.53125 0 4.15625 3.367187 7.527344 7.527343 7.527344h25.273438c-22.824219 25.75-37.269531 59.078125-39.019531 95.6875h-14.15625c-4.242188-16.148438-18.964844-28.09375-36.421875-28.09375-20.761719 0-37.652344 16.890625-37.652344 37.65625 0 20.761719 16.890625 37.652343 37.652344 37.652343 18.894531 0 34.582031-13.992187 37.25-32.160156h13.328125c1.75 36.609375 16.199219 69.9375 39.019531 95.6875h-89.597656c-4.160156 0-7.527344 3.371094-7.527344 7.527344v69.996094c-16.582031 3.9375-28.957031 18.859375-28.957031 36.628906 0 20.765625 16.890625 37.65625 37.652343 37.65625 20.765626 0 37.65625-16.890625 37.65625-37.65625 0-18.59375-13.550781-34.074219-31.296874-37.105469v-61.988281h97.371093c25.613281 21.96875 58.417969 35.777344 94.347657 37.359375v24.839844c-17.167969 3.496093-30.125 18.710937-30.125 36.894531 0 20.765625 16.890624 37.65625 37.652343 37.65625 20.765625 0 37.65625-16.890625 37.65625-37.65625 0-18.183594-12.960937-33.398438-30.125-36.894531v-24.910157c24.9375-1.296874 49.230469-8.527343 70.714844-21.15625 8-4.699218 15.539063-10.117187 22.546875-16.132812h97.285156v62.199219c-17.167968 3.496093-30.128906 18.710937-30.128906 36.894531 0 20.761719 16.894531 37.652344 37.65625 37.652344s37.652344-16.890625 37.652344-37.652344c0-18.183594-12.957032-33.398438-30.125-36.894531v-69.730469c0-4.15625-3.367188-7.527344-7.527344-7.527344h-89.507812c6.808593-7.6875 12.875-16.046875 18.0625-24.964844 2.09375-3.589843.875-8.199218-2.71875-10.292968-3.59375-2.089844-8.203126-.871094-10.292969 2.722656-12.179688 20.929688-29.652344 38.476562-50.53125 50.746094-21.496094 12.632812-46.117188 19.3125-71.203125 19.3125-77.601563 0-140.738282-63.136719-140.738282-140.738282 0-77.601562 63.136719-140.738281 140.738282-140.738281 77.605468 0 140.738281 63.136719 140.738281 140.738281 0 14.898438-2.3125 29.566407-6.878906 43.59375-1.285157 3.957032.875 8.203126 4.828125 9.492188zm67.503906-73.648438c12.457031 0 22.59375 10.136719 22.59375 22.597657 0 12.460937-10.136719 22.597656-22.59375 22.597656-12.460938 0-22.597656-10.136719-22.597656-22.597656 0-12.460938 10.136718-22.597657 22.597656-22.597657zm-22.597656-198.761718c0-12.457032 10.136718-22.59375 22.597656-22.59375 12.457031 0 22.59375 10.136718 22.59375 22.59375 0 12.460937-10.136719 22.597656-22.59375 22.597656-12.460938 0-22.597656-10.136719-22.597656-22.597656zm-389.78125 243.957031c-12.460938 0-22.59375-10.136719-22.59375-22.597656 0-12.460938 10.132812-22.597657 22.59375-22.597657 12.460937 0 22.597656 10.136719 22.597656 22.597657 0 12.460937-10.136719 22.597656-22.597656 22.597656zm23.765625 192.738281c0 12.457032-10.136719 22.59375-22.597657 22.59375-12.460937 0-22.597656-10.136718-22.597656-22.59375 0-12.460937 10.136719-22.597656 22.597656-22.597656 12.460938 0 22.597657 10.136719 22.597657 22.597656zm411.207031 0c0 12.457032-10.136719 22.59375-22.59375 22.59375-12.460938 0-22.597656-10.136718-22.597656-22.59375 0-12.460937 10.136718-22.597656 22.597656-22.597656 12.457031 0 22.59375 10.136719 22.59375 22.597656zm-205.601562 0c0 12.457032-10.136719 22.59375-22.597657 22.59375-12.460937 0-22.597656-10.136718-22.597656-22.59375 0-12.460937 10.136719-22.597656 22.597656-22.597656 12.460938 0 22.597657 10.136719 22.597657 22.597656zm-45.195313-436.695312c0-12.457032 10.136719-22.59375 22.597656-22.59375 12.460938 0 22.597657 10.136718 22.597657 22.59375 0 12.460937-10.136719 22.597656-22.597657 22.597656-12.460937 0-22.597656-10.136719-22.597656-22.597656zm0 0"/><path d="m193.980469 155.46875c-4.160157 0-7.53125 3.371094-7.53125 7.53125v96.628906h-24.285157c-2.875 0-5.496093 1.636719-6.761718 4.21875-1.265625 2.578125-.949219 5.652344.8125 7.921875l68.09375 87.867188c1.429687 1.84375 3.628906 2.914062 5.949218 2.914062.167969 0 .339844-.003906.511719-.015625 2.503907-.171875 4.757813-1.578125 6.007813-3.75l.429687-.742187c.660157-1.144531 1.007813-2.441407 1.007813-3.761719v-191.28125c0-4.160156-3.371094-7.53125-7.527344-7.53125zm29.175781 178.101562-45.636719-58.882812h16.460938c4.15625 0 7.527343-3.371094 7.527343-7.527344v-96.632812h21.648438zm0 0"/><path d="m254.386719 155.488281c-2.5.167969-4.753907 1.570313-6.011719 3.742188l-.429688.742187c-.660156 1.144532-1.007812 2.445313-1.007812 3.769532v191.28125c0 4.160156 3.367188 7.53125 7.527344 7.53125h36.707031c4.15625 0 7.527344-3.371094 7.527344-7.53125v-96.632813h24.289062c2.871094 0 5.496094-1.632813 6.757813-4.214844 1.265625-2.578125.953125-5.652343-.808594-7.925781l-68.09375-87.863281c-1.535156-1.980469-3.976562-3.0625-6.457031-2.898438zm7.605469 28.960938 45.636718 58.886719h-16.457031c-4.160156 0-7.53125 3.371093-7.53125 7.527343v96.632813h-21.648437zm0 0"/><path d="m30.625 74.28125v71.953125c0 4.15625 3.367188 7.527344 7.527344 7.527344h34.101562c4.160156 0 7.53125-3.371094 7.53125-7.527344 0-4.160156-3.371094-7.53125-7.53125-7.53125h-26.574218v-63.941406c17.746093-3.035157 31.296874-18.511719 31.296874-37.109375-.003906-20.761719-16.894531-37.652344-37.65625-37.652344-20.761718 0-37.652343 16.890625-37.652343 37.652344 0 17.769531 12.375 32.691406 28.957031 36.628906zm8.695312-59.222656c12.460938 0 22.597657 10.136718 22.597657 22.59375 0 12.460937-10.136719 22.597656-22.597657 22.597656-12.457031 0-22.597656-10.136719-22.597656-22.597656 0-12.457032 10.140625-22.59375 22.597656-22.59375zm0 0"/></g></svg>
